<svg id="Capa_1" enable-background="new 0 0 511.271 511.271" height="512" viewBox="0 0 511.271 511.271" width="512" xmlns="http://www.w3.org/2000/svg"><g><g><path d="m163.739 411.488h184.325v1h-184.325z"/><path d="m163.273 412.209c-16.174 13.176-36.817 21.075-59.306 21.075-51.897 0-93.967-42.07-93.967-93.967s42.07-93.967 93.967-93.967h6.527s296.807-.024 296.807.001c51.9 0 93.97 42.07 93.97 93.97 0 51.89-42.07 93.96-93.97 93.96-22.61 0-43.36-7.98-59.57-21.29" fill="#cfd3df"/><circle cx="103.967" cy="339.317" fill="#ff9eb1" r="53.573"/></g><g><path d="m407.3 235.352s-152.649-.051-153.14-.05v-33.315c0-62.86 51.141-114 114-114 5.522 0 10-4.477 10-10s-4.478-10-10-10c-73.888 0-134 60.112-134 134v33.32c-68.04.017-130.197.045-130.193.045-28.044 0-54.335 10.998-74.028 30.967-19.69 19.965-30.319 46.415-29.929 74.476.788 56.662 47.356 102.49 103.964 102.49.236 0 .477-.001.713-.002 22.487-.153 44.473-7.701 62.302-21.294h177.285c18.022 13.749 40.253 21.293 63.026 21.293 57.33 0 103.971-46.636 103.971-103.96 0-57.33-46.64-103.97-103.971-103.97zm0 187.93c-18.696 0-36.931-6.298-51.604-17.747-1.834-2.167-4.571-3.547-7.632-3.547h-184.325c-1.647 0-3.197.405-4.567 1.111-.776.35-1.523.794-2.215 1.357-14.959 12.186-33.081 18.696-52.406 18.827-46.008.327-83.903-36.816-84.543-82.766-.315-22.667 8.269-44.03 24.171-60.155 15.905-16.128 37.139-25.011 59.793-25.011 102.112-.045 303.328.001 303.328.001 46.302 0 83.971 37.669 83.971 83.97 0 46.296-37.669 83.96-83.971 83.96z"/><path d="m103.967 275.745c-35.055 0-63.573 28.519-63.573 63.573s28.519 63.573 63.573 63.573 63.572-28.519 63.572-63.573-28.518-63.573-63.572-63.573zm0 107.145c-24.026 0-43.573-19.547-43.573-43.573s19.547-43.573 43.573-43.573c24.025 0 43.572 19.547 43.572 43.573s-19.546 43.573-43.572 43.573z"/><circle cx="408.829" cy="302.655" r="10"/><circle cx="408.829" cy="369.322" r="10"/><circle cx="375.495" cy="335.989" r="10"/><circle cx="442.162" cy="335.989" r="10"/><path d="m119.094 329.113h-5.127v-5.127c0-5.523-4.478-10-10-10s-10 4.477-10 10v5.127h-5.127c-5.522 0-10 4.477-10 10s4.478 10 10 10h5.127v5.127c0 5.523 4.478 10 10 10s10-4.477 10-10v-5.127h5.127c5.522 0 10-4.477 10-10s-4.477-10-10-10z"/><path d="m227.006 346.585-19 19c-3.63 3.63-3.883 9.624-.557 13.539 3.732 4.393 10.621 4.68 14.699.603l19-19c3.905-3.905 3.905-10.237 0-14.143-3.905-3.904-10.235-3.904-14.142.001z"/><path d="m288.173 346.585-19 19c-3.63 3.63-3.883 9.624-.557 13.539 3.732 4.393 10.621 4.68 14.699.603l19-19c3.905-3.905 3.905-10.237 0-14.143-3.906-3.904-10.236-3.904-14.142.001z"/><path d="m280.838 284.078c0-5.523-4.478-10-10-10h-86.291c-5.522 0-10 4.477-10 10s4.478 10 10 10h86.291c5.522 0 10-4.477 10-10z"/><circle cx="315.775" cy="284.078" r="10"/><circle cx="413.161" cy="77.986" r="10"/></g></g></svg>